<svg fill="none" xmlns="http://www.w3.org/2000/svg" viewBox="0 0 256 47">
  <g clip-path="url(#vAAZ19Hsx3AYa)">
    <path d="M59.27 12.867h2.25l9.704 20.732H68.64l-2.494-5.44h-11.59l-2.524 5.44h-2.463l9.705-20.732h-.005zM65.2 26.07l-4.835-10.498-4.867 10.498h9.705-.002zm9.28-13.055h15.302v2.146H76.885v7.353h11.53v2.118h-11.53v8.97H74.48V13.014zM91.663 30.6l1.49-1.706c2.22 1.94 4.35 2.91 7.301 2.91 2.952 0 4.747-1.47 4.747-3.5v-.058c0-1.911-1.065-3-5.538-3.91-4.897-1.03-7.147-2.56-7.147-5.94v-.06c0-3.234 2.951-5.618 6.996-5.618 3.103 0 5.325.854 7.483 2.53l-1.398 1.794c-1.976-1.56-3.955-2.235-6.144-2.235-2.767 0-4.533 1.47-4.533 3.324v.06c0 1.94 1.095 3.028 5.78 3.999 4.746 1 6.935 2.675 6.935 5.823v.06c0 3.528-3.041 5.823-7.27 5.823-3.377 0-6.144-1.09-8.702-3.294v-.003zm20.186-17.585h2.404v9.147h12.29v-9.147h2.404v20.586h-2.404v-9.263h-12.29V33.6h-2.404V13.015z" fill="#404040"/>
    <path d="M138.481 35.299V11.758" stroke="#8B8E83" stroke-width=".5" stroke-miterlimit="10"/>
    <path d="M39.493 0H3.016v47.054H18.59c.033-.086.061-.15.064-.163a25.274 25.274 0 012.012-4.197c.453-.768.911-1.532 1.367-2.294 3.674-6.145 7.147-11.949 8.481-16.723.233-.834.522-1.92.825-3.066 1.244-4.678 1.561-5.73 1.768-5.933a.317.317 0 01.257-.133c.12 0 .215.072.24.185.307 1.364-1.147 7.58-1.564 9.13-1.825 6.779-4.795 11.345-7.665 15.76-1.59 2.445-3.092 4.757-4.354 7.363a.42.42 0 00-.02.069H39.49V0h.002zM17.36 32.955a.127.127 0 01-.117.094c-.064-.005-.108-.034-.123-.086-.172-.575-.208-1.055-.238-1.52-.026-.371-.052-.723-.149-1.096-.312-1.21-1.042-2.198-1.746-3.153-.604-.82-1.175-1.597-1.436-2.448-.19-.616-.29-1.324-.384-2.007-.238-1.685-.484-3.425-2.06-4.178a22.863 22.863 0 00-1.163 6.155c-.087 2.07.617 3.849 1.362 5.737.855 2.166 1.738 4.403 1.434 7.212a.126.126 0 01-.126.109h-.005a.12.12 0 01-.12-.117c-.08-2.002-.886-4.001-1.736-6.122-.835-2.074-1.7-4.218-1.861-6.428-.092-1.235.038-2.603.379-3.954.197-.78.43-1.611.814-2.396.256-.53.625-.8 1.096-.8.348 0 .755.15 1.246.453 1.306.81 1.523 2.337 1.756 3.953.116.802.233 1.636.484 2.452.21.683.691 1.213 1.198 1.775 1.134 1.252 2.422 2.673 1.506 6.368l-.01-.003zm1.928-13.3c-.084.322-.159.666-.23 1-.315 1.443-.64 2.935-1.877 3.794a.122.122 0 01-.072.022.128.128 0 01-.066-.017.123.123 0 01-.056-.124c.995-5.875 2.8-14.334 6.963-19.94.005-.01.015-.017.025-.024.205-.154.52-.057.584.165.085.716-.53 1.911-1.18 3.176-.264.512-.538 1.042-.753 1.527-1.36 3.039-2.314 6.518-3.335 10.421h-.003zm3.382 3.955c-.126.76-.282 1.703-1.298 1.854h-.02a.122.122 0 01-.09-.037.12.12 0 01-.034-.107c1.508-7.724 4.066-14.554 7.604-20.301.258-.285.62-.094.62.186-.1 1.373-.75 2.653-1.38 3.888-.188.37-.385.757-.561 1.133-2.25 4.838-3.76 8.94-4.749 12.904a4.896 4.896 0 00-.09.478l-.002.002zm9.418-12.963c-.445 1.086-.855 1.965-1.247 2.814-1.193 2.579-2.322 5.011-4.38 12.678-.02.05-.358.8-1.098.943h-.023a.122.122 0 01-.09-.037.115.115 0 01-.033-.111c1.178-5.15 2.96-11.714 6.318-16.82a.123.123 0 01.074-.051c.292-.077.492.146.492.542 0 .015-.005.03-.01.042h-.003z" fill="#404040"/>
    <path d="M150.958 14.57h.673l2.898 6.194h-.773l-.745-1.626h-3.461l-.755 1.626h-.737l2.9-6.194zm1.774 3.944l-1.444-3.135-1.454 3.135h2.898zm2.908-2.291h.699v.764c.31-.447.727-.86 1.518-.86s1.255.395 1.508.905c.335-.5.837-.906 1.654-.906 1.08 0 1.746.703 1.746 1.827v2.811h-.699v-2.653c0-.879-.456-1.371-1.219-1.371-.709 0-1.3.51-1.3 1.406v2.618h-.691v-2.67c0-.852-.464-1.354-1.209-1.354-.745 0-1.308.596-1.308 1.433v2.591h-.699v-4.541zm10.724 4.058c.645 0 1.101-.255 1.482-.64l.436.378c-.474.51-1.045.852-1.936.852-1.29 0-2.345-.958-2.345-2.371 0-1.317.955-2.371 2.256-2.371 1.39 0 2.188 1.071 2.188 2.408 0 .062 0 .13-.01.237h-3.725c.1.958.827 1.512 1.654 1.512v-.005zm1.37-2.056c-.082-.827-.574-1.53-1.5-1.53-.809 0-1.426.651-1.526 1.53h3.026zm1.945-2.002h.699v1.185c.346-.755 1.027-1.3 1.918-1.265v.73h-.054c-1.027 0-1.864.713-1.864 2.082v1.809h-.699v-4.541zm3.602-1.74h.802v.747h-.802v-.747zm.046 1.74h.699v4.541h-.699v-4.541zm1.959 2.291v-.017a2.381 2.381 0 012.409-2.37c.891 0 1.446.36 1.881.806l-.463.475c-.374-.379-.791-.685-1.426-.685-.955 0-1.682.782-1.682 1.757v.017c0 .985.745 1.767 1.728 1.767.599 0 1.063-.29 1.436-.675l.446.403c-.474.51-1.037.878-1.918.878-1.372 0-2.409-1.081-2.409-2.353l-.002-.003zm5.171.933v-.017c0-.975.817-1.485 2.007-1.485.602 0 1.019.08 1.436.193v-.14c0-.81-.509-1.23-1.39-1.23-.553 0-.991.13-1.426.323l-.21-.554c.517-.228 1.017-.386 1.708-.386.691 0 1.182.176 1.518.5.328.317.491.755.491 1.336v2.777h-.691v-.676c-.328.404-.863.773-1.689.773-.881 0-1.754-.483-1.754-1.416v.002zm3.453-.351v-.42a4.974 4.974 0 00-1.372-.194c-.873 0-1.372.369-1.372.913v.018c0 .572.545.906 1.18.906.863 0 1.564-.5 1.564-1.22v-.003zm2.166-2.873h.699v.79c.31-.493.799-.887 1.608-.887 1.136 0 1.799.738 1.799 1.82v2.82h-.698v-2.652c0-.844-.474-1.372-1.301-1.372s-1.408.572-1.408 1.423v2.602h-.699v-4.544zm8.44-1.609h4.573v.641h-3.853v2.195h3.443v.634h-3.443v2.68h-.72v-6.15zm5.236 3.9v-.017c0-1.282 1.036-2.37 2.455-2.37 1.418 0 2.445 1.07 2.445 2.353v.017c0 1.282-1.045 2.371-2.463 2.371-1.418 0-2.435-1.072-2.435-2.354h-.002zm4.18 0v-.017c0-.975-.755-1.774-1.746-1.774-.99 0-1.718.799-1.718 1.757v.017c0 .975.745 1.767 1.736 1.767s1.726-.79 1.726-1.747l.002-.003zm1.636.527v-2.82h.699v2.652c0 .844.473 1.371 1.3 1.371.827 0 1.408-.571 1.408-1.423v-2.6h.692v4.54h-.692v-.789c-.317.493-.798.889-1.607.889-1.137 0-1.8-.738-1.8-1.82zm5.64-2.818h.699v.79c.309-.493.801-.887 1.607-.887 1.137 0 1.8.738 1.8 1.82v2.82h-.699v-2.652c0-.844-.474-1.372-1.3-1.372-.827 0-1.408.572-1.408 1.423v2.602h-.699v-4.544zm5.324 2.284v-.017c0-1.485 1.119-2.364 2.246-2.364.873 0 1.436.458 1.799.965v-2.74h.699v6.413h-.699v-.913c-.381.544-.937 1.01-1.799 1.01-1.127 0-2.246-.862-2.246-2.354zm4.071-.01v-.017a1.715 1.715 0 00-1.7-1.747c-.873 0-1.654.65-1.654 1.747v.017c0 1.072.763 1.757 1.654 1.757.891 0 1.7-.713 1.7-1.757zm1.856.95v-.017c0-.975.817-1.485 2.009-1.485.6 0 1.017.08 1.437.193v-.14c0-.81-.51-1.23-1.39-1.23-.553 0-.991.13-1.426.323l-.21-.554c.517-.228 1.019-.386 1.707-.386.689 0 1.183.176 1.518.5.328.317.492.755.492 1.336v2.777h-.691v-.676c-.328.404-.863.773-1.69.773-.883 0-1.754-.483-1.754-1.416l-.002.002zm3.453-.351v-.42a4.974 4.974 0 00-1.372-.194c-.873 0-1.372.369-1.372.913v.018c0 .572.545.906 1.183.906.862 0 1.564-.5 1.564-1.22l-.003-.003zm2.294.465V16.82h-.655v-.596h.655v-1.371h.699v1.37h1.49v.597h-1.49v2.653c0 .554.317.755.791.755.236 0 .435-.044.681-.158v.579a1.801 1.801 0 01-.845.193c-.755 0-1.326-.362-1.326-1.282v.002zm3.262-5.078h.801v.747h-.801v-.747zm.046 1.74h.698v4.541h-.698v-4.541zm1.961 2.291v-.017c0-1.282 1.036-2.37 2.455-2.37 1.418 0 2.444 1.07 2.444 2.353v.017c0 1.282-1.044 2.371-2.462 2.371-1.419 0-2.435-1.072-2.435-2.354h-.002zm4.18 0v-.017c0-.975-.755-1.774-1.746-1.774s-1.718.799-1.718 1.757v.017c0 .975.745 1.767 1.736 1.767s1.726-.79 1.726-1.747l.002-.003zm1.754-2.291h.698v.79c.31-.493.802-.887 1.608-.887 1.137 0 1.8.738 1.8 1.82v2.82h-.699v-2.652c0-.844-.474-1.372-1.301-1.372-.826 0-1.408.572-1.408 1.423v2.602h-.698v-4.544zm-90.658 12.312h-.645v-.589h.645v-.396c0-.517.146-.913.41-1.168.235-.228.581-.352 1.009-.352a2.2 2.2 0 01.773.114v.59c-.254-.07-.446-.114-.681-.114-.546 0-.817.316-.817.965v.368h1.49v.58h-1.482v3.944h-.699v-3.944l-.003.002zm2.642 1.695v-.017c0-1.282 1.037-2.37 2.453-2.37 1.415 0 2.445 1.07 2.445 2.353v.017c0 1.282-1.045 2.371-2.463 2.371-1.418 0-2.435-1.072-2.435-2.354zm4.183 0v-.017c0-.975-.755-1.774-1.746-1.774-.99 0-1.717.799-1.717 1.757v.017c0 .975.745 1.767 1.735 1.767.991 0 1.728-.79 1.728-1.747v-.003zm1.961-2.294h.699v1.186c.346-.755 1.027-1.3 1.918-1.265v.73h-.054c-1.027 0-1.864.713-1.864 2.081v1.81h-.699v-4.542zm6.106 3.648l.445-.51c.663.58 1.301.869 2.181.869.881 0 1.419-.438 1.419-1.044v-.018c0-.571-.318-.896-1.654-1.168-1.464-.307-2.135-.765-2.135-1.774v-.018c0-.967.881-1.678 2.091-1.678.927 0 1.59.255 2.235.755l-.417.535c-.591-.466-1.18-.668-1.836-.668-.826 0-1.354.44-1.354.992v.017c0 .58.328.906 1.728 1.196 1.418.3 2.071.799 2.071 1.74v.017c0 1.054-.909 1.74-2.171 1.74-1.008 0-1.835-.325-2.598-.985l-.005.002zm6.036-.826v-2.822h.699v2.653c0 .844.474 1.371 1.301 1.371s1.408-.571 1.408-1.423v-2.6h.691v4.54h-.691v-.789c-.318.493-.802.889-1.608.889-1.137 0-1.8-.738-1.8-1.82zm5.643-2.822h.698v1.186c.346-.755 1.027-1.3 1.918-1.265v.73h-.054c-1.026 0-1.864.713-1.864 2.081v1.81h-.698v-4.542zm3.497 5.334l.317-.528c.538.379 1.137.58 1.807.58 1.037 0 1.71-.555 1.71-1.617v-.534c-.409.527-.98.958-1.845.958-1.127 0-2.21-.817-2.21-2.126v-.018c0-1.326 1.091-2.143 2.21-2.143.88 0 1.454.42 1.835.913v-.816h.702v3.752c0 .702-.218 1.24-.602 1.608-.417.404-1.044.607-1.789.607-.781 0-1.508-.21-2.135-.634v-.002zm3.852-3.277v-.017c0-.931-.837-1.537-1.728-1.537s-1.628.596-1.628 1.529v.017c0 .914.755 1.547 1.628 1.547.873 0 1.728-.623 1.728-1.537v-.002zm4.301 2.004c.645 0 1.101-.255 1.482-.64l.436.378c-.474.51-1.045.851-1.936.851-1.29 0-2.345-.957-2.345-2.37 0-1.317.955-2.371 2.253-2.371 1.39 0 2.191 1.071 2.191 2.408 0 .061 0 .13-.01.237h-3.725c.1.958.827 1.512 1.654 1.512v-.005zm1.372-2.056c-.082-.827-.573-1.53-1.5-1.53-.809 0-1.426.651-1.526 1.53h3.026zm1.948-2.005h.699v1.186c.346-.755 1.027-1.3 1.918-1.265v.73h-.054c-1.027 0-1.864.713-1.864 2.081v1.81h-.699v-4.542zm3.579 5.747l.236-.537c.228.114.435.166.737.166.417 0 .681-.21.963-.852l-2.135-4.524h.773l1.707 3.787 1.508-3.787h.745l-1.971 4.693c-.399.94-.855 1.282-1.564 1.282-.392 0-.681-.08-.999-.228zm8.077-3.453v-.017c0-1.282 1.037-2.37 2.455-2.37 1.418 0 2.445 1.07 2.445 2.353v.017c0 1.282-1.044 2.371-2.463 2.371-1.418 0-2.434-1.072-2.434-2.354h-.003zm4.181 0v-.017c0-.975-.756-1.774-1.746-1.774-.991 0-1.718.799-1.718 1.757v.017c0 .975.745 1.767 1.736 1.767.99 0 1.725-.79 1.725-1.747l.003-.003zm2.099-1.695h-.645v-.589h.645v-.396c0-.517.146-.913.409-1.168.236-.228.582-.352 1.009-.352.328 0 .545.035.773.114v.59c-.253-.07-.445-.114-.681-.114-.545 0-.816.316-.816.965v.368h1.489v.58h-1.482v3.944h-.699v-3.944l-.002.002zm6.041 2.74v-2.742h-.655v-.597h.655v-1.37h.699v1.37h1.49v.597h-1.49v2.653c0 .554.318.755.791.755.236 0 .436-.045.681-.159v.58a1.797 1.797 0 01-.844.192c-.756 0-1.327-.361-1.327-1.282v.003zm3.275-5.21h.699v2.663c.309-.492.801-.888 1.607-.888 1.137 0 1.8.737 1.8 1.819v2.821h-.699v-2.653c0-.844-.474-1.371-1.3-1.371-.827 0-1.408.572-1.408 1.423v2.601h-.699v-6.415zm7.68 5.932c.645 0 1.098-.255 1.482-.64l.435.378c-.473.51-1.044.851-1.935.851-1.29 0-2.345-.957-2.345-2.37 0-1.317.955-2.371 2.253-2.371 1.39 0 2.191 1.071 2.191 2.408 0 .061 0 .13-.01.237h-3.725c.1.958.827 1.512 1.654 1.512v-.005zm1.372-2.056c-.082-.827-.574-1.53-1.5-1.53-.809 0-1.426.651-1.526 1.53h3.026zm4.777-3.611h.719v2.732h3.671V26.33h.72v6.15h-.72v-2.767h-3.671v2.767h-.719v-6.15zm6.208 4.83v-.016c0-.975.816-1.485 2.009-1.485.599 0 1.017.079 1.437.193v-.141c0-.81-.51-1.23-1.391-1.23-.552 0-.99.13-1.425.324l-.21-.555c.517-.227 1.019-.386 1.707-.386.689 0 1.183.176 1.518.5.328.317.492.755.492 1.337v2.776h-.691v-.675c-.328.403-.863.772-1.69.772-.881 0-1.754-.482-1.754-1.416l-.002.003zm3.453-.35v-.421a4.974 4.974 0 00-1.372-.193c-.873 0-1.372.368-1.372.913v.017c0 .572.545.906 1.183.906.862 0 1.564-.5 1.564-1.22l-.003-.003zm2.166-2.874h.699v.79c.31-.493.801-.889 1.608-.889 1.136 0 1.799.738 1.799 1.82v2.82h-.699v-2.652c0-.844-.473-1.372-1.3-1.372-.827 0-1.408.572-1.408 1.424v2.6h-.699v-4.54zm5.097 2.284v-.017c0-1.485 1.119-2.363 2.245-2.363.873 0 1.436.457 1.8.965v-2.74h.699v6.412h-.699v-.913c-.382.545-.937 1.01-1.8 1.01-1.126 0-2.245-.861-2.245-2.353zm4.073-.007v-.017c0-1.045-.827-1.75-1.7-1.75s-1.654.65-1.654 1.75v.017c0 1.072.763 1.757 1.654 1.757.891 0 1.7-.713 1.7-1.757z" fill="#8C8D82"/>
  </g>
  <defs>
    <clipPath id="vAAZ19Hsx3AYa">
      <path fill="#fff" d="M0 0h256v47H0z"/>
    </clipPath>
  </defs>
</svg>
