<svg xmlns="http://www.w3.org/2000/svg" fill="none" viewBox="0 0 60 60">
  <path fill="#008E84" d="M0 0h60v60H0z"/>
  <path fill="#fff" d="M27.69 32.945a5.6 5.6 0 0 0-2.25-1.5 9.8 9.8 0 0 0-3.563-.518h-1.965a12.34 12.34 0 0 1 2.625-6.75 19.5 19.5 0 0 1 6.285-4.875l-1.545-2.715a23.3 23.3 0 0 0-8.67 7.08C16.215 26.757 15 29.855 15 32.9c0 3.285.705 5.857 2.107 7.687a6.99 6.99 0 0 0 6 2.768 5.93 5.93 0 0 0 4.313-1.83 5.83 5.83 0 0 0 1.83-4.268 7.4 7.4 0 0 0-.33-2.295 6.4 6.4 0 0 0-1.215-2.017zm16.965 2.062a5.2 5.2 0 0 0-1.17-2.017 5.6 5.6 0 0 0-2.25-1.5 9.8 9.8 0 0 0-3.563-.518h-1.965a12.34 12.34 0 0 1 2.625-6.75 19.5 19.5 0 0 1 6.285-4.875l-1.545-2.715a23.3 23.3 0 0 0-8.67 7.08c-2.392 3.09-3.607 6.188-3.607 9.233 0 3.285.705 5.857 2.107 7.687a6.99 6.99 0 0 0 6 2.768 5.93 5.93 0 0 0 4.313-1.83A6.16 6.16 0 0 0 45 37.257a7.1 7.1 0 0 0-.33-2.25z"/>
</svg>
