<svg fill="none" xmlns="http://www.w3.org/2000/svg" viewBox="0 0 180 67">
  <path d="M84.618 19.426h2.97l12.798 28.129h-3.402l-3.294-7.377H78.408l-3.33 7.377h-3.24l12.798-28.129h-.018zM92.43 37.35l-6.372-14.234L79.65 37.35h12.798-.018zm11.07 6.14l1.962-2.31c2.934 2.633 5.742 3.958 9.63 3.958 3.888 0 6.264-1.988 6.264-4.745v-.072c0-2.596-1.404-4.064-7.29-5.3-6.462-1.396-9.432-3.473-9.432-8.057v-.071c0-4.387 3.888-7.61 9.216-7.61 5.328 0 7.02 1.164 9.864 3.438l-1.836 2.435c-2.61-2.113-5.22-3.026-8.1-3.026s-5.976 1.988-5.976 4.512v.072c0 2.632 1.44 4.1 7.614 5.425 6.264 1.36 9.144 3.635 9.144 7.896v.072c0 4.78-4.014 7.896-9.576 7.896s-8.1-1.469-11.466-4.477l-.018-.035zm25.308 0l1.962-2.31c2.934 2.633 5.742 3.958 9.63 3.958 3.888 0 6.264-1.988 6.264-4.745v-.072c0-2.596-1.404-4.064-7.29-5.3-6.462-1.396-9.432-3.473-9.432-8.057v-.071c0-4.387 3.888-7.61 9.216-7.61 5.328 0 7.02 1.164 9.864 3.438l-1.836 2.435c-2.61-2.113-5.22-3.026-8.1-3.026s-5.976 1.988-5.976 4.512v.072c0 2.632 1.44 4.1 7.614 5.425 6.264 1.36 9.144 3.635 9.144 7.896v.072c0 4.78-4.014 7.896-9.576 7.896s-8.1-1.469-11.466-4.477l-.018-.035zm27.522-23.849h3.168V32.05h16.2V19.641h3.168v27.914h-3.168v-12.57h-16.2v12.57h-3.168V19.64zM9.666 11.62c.792-.86 1.494-.304 1.026.483-4.932 8.272-3.654 20.483-3.654 20.483-3.222-5.37-1.404-16.526 2.628-20.966zm8.964 21.737c-4.986-7.18-1.962-18.657 5.004-22.847.954-.573 1.8-.125 1.116.609-4.068 4.44-8.73 12.426-4.734 18.155.54.502.936.914.936.914l.612.662c1.782-1.647 1.404-6.893 5.544-5.246-2.916 2.578-1.89 8.165-3.222 11.889-.198 1.074-2.16 4.78-2.16 4.78s-.414-3.724-1.944-6.642a70.834 70.834 0 01-1.17-2.292l.018.018z" fill="#fff"/>
  <path d="M20.844 55.845C10.44 57.277-1.62 41.038 2.628 22.775c.45-1.934 1.278-1.952 1.116-.108C2.16 39.623 8.64 50.42 20.862 55.845h-.018zm-9-28.111c-3.276-4.888-.612-16.204 6.084-19.032.954-.394 1.746.268 1.116.841-4.662 4.208-7.146 12.014-7.2 18.191zM41.76 55.04c-2.61 5.264-13.806 8.63-19.602 4.279-.828-.627-.63-1.647.162-1.379 5.994 1.916 14.022.143 19.44-2.9zm19.98-21.809c6.444 8.255-1.656 26.75-19.692 32.23-1.908.572-2.34-.126-.648-.896 15.552-7.108 21.708-18.102 20.34-31.334zM43.272 46.373c-3.762 7.879-15.264 11.012-22.392 7.109-.972-.537-1.008-1.486-.018-1.271 5.904 1.27 15.192 1.307 18.18-4.996a20.42 20.42 0 01.324-1.253l.27-.878c-2.322-.716-6.714 2.238-7.344-2.148 3.708 1.217 8.046-2.453 11.97-3.17 1.026-.375 5.238-.536 5.238-.536s-3.024 2.22-4.806 4.995a57.995 57.995 0 01-1.404 2.148h-.018z" fill="#fff"/>
  <path d="M28.818 64.96c-1.152-.252-1.008-1.129-.09-1.129 9.666.107 19.656-7.09 19.656-7.09-3.06 5.46-13.68 9.471-19.566 8.218zM50.58 15.613c5.886-.376 14.418 7.574 13.536 14.753-.126 1.021-1.116 1.361-1.296.556-1.332-6.124-6.894-12.158-12.24-15.31zM21.6 9.31c3.96-9.686 24.12-11.942 37.908.842 1.458 1.343 1.044 2.077-.468 1.003C45.072 1.325 32.436 1.504 21.6 9.31zm20.682 9.329c8.748-.699 17.226 7.645 17.388 15.738.018 1.11-.792 1.611-1.098.662-1.836-5.711-6.462-13.733-13.446-13.16-.702.215-1.26.34-1.26.34l-.9.198c.54 2.363 5.292 4.655 1.8 7.394-.792-3.796-6.156-5.711-8.748-8.72-.828-.698-3.078-4.243-3.078-4.243s3.456 1.504 6.75 1.63c.954.035 1.8.089 2.574.143l.018.018z" fill="#fff"/>
  <path d="M65.682 21.79c.36 1.11-.486 1.433-.936.645-4.734-8.38-16.002-13.393-16.002-13.393 6.282-.09 15.084 7.054 16.938 12.748z" fill="#fff"/>
</svg>
