<svg fill="none" xmlns="http://www.w3.org/2000/svg" viewBox="0 0 150 45">
  <g clip-path="url(#SyhkF7fYs88Ba)">
    <path fill-rule="evenodd" clip-rule="evenodd" d="M129.985 20.628c.186-.832.379-1.765.582-2.813.676-3.496 2.869-6.93 2.869-6.93s-4.227 1.832-5.12 2.612c-3.697 2.275-6.635 7.692-10.901 7.928 2.453 4.224 5.785-.69 8.47-.746 1.558 9.154-9.196 13.452-16.374 14.6-1.083.174-.66 1.124.541 1.276 8.819 1.115 19.231-6.543 19.933-15.924v-.003zm1.992 9.233c-4.287 5.197-11.755 10.155-18.643 10.6-.916.063-.703 1.164.389 1.461 7.68 2.092 17.712-5.735 18.254-12.06z" fill="#414141"/>
    <path fill-rule="evenodd" clip-rule="evenodd" d="M122.256 43.879c-.931.352-.719 1.302.545 1.092 6.503-1.058 15.704-9.304 16.624-16.003 0 0-7.281 11.206-17.169 14.91z" fill="#414141"/>
    <path fill-rule="evenodd" clip-rule="evenodd" d="M143.517 0c6.742 12.781 4.92 26.268-8.045 39.583-1.406 1.44-.68 1.982 1.023.648 16.154-12.646 16.932-34.473 7.022-40.233V0z" fill="#414141"/>
    <path d="M0 4.34h3.972v9.231h10.785V4.34h3.972v22.208h-3.972V17.19H3.972v9.358H0V4.339zm34.359 22.207v-2.062c-1.163 1.364-2.938 2.412-5.522 2.412-3.229 0-6.07-1.81-6.07-5.172v-.063c0-3.712 2.938-5.488 6.91-5.488 2.066 0 3.39.285 4.714.698v-.317c0-2.316-1.485-3.585-4.197-3.585-1.906 0-3.326.413-4.876 1.047l-1.066-3.077c1.873-.825 3.713-1.396 6.49-1.396 5.039 0 7.492 2.601 7.492 7.075v9.93H34.36v-.002zm.096-7.012c-1-.381-2.39-.666-3.907-.666-2.455 0-3.907.984-3.907 2.602v.063c0 1.585 1.452 2.475 3.293 2.475 2.584 0 4.521-1.428 4.521-3.521v-.953zm8.167-9.739h3.907v2.601c1.099-1.586 2.68-2.95 5.328-2.95 3.843 0 6.071 2.539 6.071 6.44v10.66h-3.907v-9.518c0-2.602-1.325-4.092-3.649-4.092s-3.843 1.554-3.843 4.155v9.453h-3.907V9.794v.002zm18.804 8.407v-.063c0-5.552 3.843-8.693 7.912-8.693 2.809 0 4.585 1.396 5.812 2.95v-9.01h3.908v23.158H75.15v-2.791c-1.26 1.745-3.036 3.141-5.813 3.141-4.004 0-7.911-3.141-7.911-8.692zm13.789 0v-.063c0-3.237-2.325-5.362-4.94-5.362-2.616 0-4.908 2.03-4.908 5.362v.063c0 3.236 2.26 5.361 4.908 5.361 2.648 0 4.94-2.157 4.94-5.361zm8.141-3.268h9.558v3.776h-9.558v-3.776z" fill="#414141"/>
    <path d="M97.95 4.34h8.914c5.264 0 8.59 2.95 8.59 7.422v.064c0 4.981-4.069 7.581-9.042 7.581h-4.489v7.138h-3.972V4.34zm8.592 11.546c3.002 0 4.876-1.65 4.876-3.965v-.064c0-2.601-1.906-3.965-4.876-3.965h-4.618v7.994h4.618z" fill="#8B8E83"/>
  </g>
  <defs>
    <clipPath id="SyhkF7fYs88Ba">
      <path fill="#fff" d="M0 0h150v45H0z"/>
    </clipPath>
  </defs>
</svg>
