<svg xmlns="http://www.w3.org/2000/svg" xmlns:xlink="http://www.w3.org/1999/xlink" fill="none" viewBox="0 0 50 50">
  <g clip-path="url(#a)">
    <path fill="#009C91" d="M36.7 40.6c.016 0 .136.094.294.094 2.637-.004 5.275 0 7.913-.019.112-.03.124-.107.142-.207.089-.484.006-1.63-.06-2.152-.018-.133-.094-.199.102-.172L50 43.175l-4.909 4.967c-.266.023-.043-.095-.043-.13V45.73c0-.073-.21-.156-.3-.136H5.084c-1.706.14-3.747.1-4.43 2.023-.267.752-.253 1.466-.305 2.238-.017.25-.215.091-.349.13v-5.877c1.205-3.63 4.93-3.382 8.05-3.418.114 0 .2-.09.212-.09 3.528-.035 7.162.005 10.697 0 2.804-.005 5.688.088 8.523.087 3.068-.001 6.171-.084 9.218-.087"/>
    <path fill="#242021" d="M20.524 7.182h7.653V.516h3.783c.026 0 .067-.112.13-.088v18.156c-.063.023-.104-.088-.13-.088h-3.783V10.69h-7.653v7.762c-.054.082-.22.132-.304.132h-3.566l-.112-.132c-.002-.036.069-.066.069-.088V.647c0-.026-.083-.054-.084-.087l.126-.13c.877.131 1.886.117 2.788.09.189-.005 1.083-.223 1.083.04zm25.097-3.895-1.41 1.521c-1.116-.976-2.703-1.426-4.14-.935-1.09.373-1.84 1.35-1.215 2.494.605 1.109 4.075 1.702 5.295 2.29 4.552 2.198 3.167 8.59-1.366 9.97-2.926.89-6.463.308-8.742-1.794-.105-.104-.01-.148.044-.225.098-.14.352-.424.48-.568.707-.801 1.46-1.573 2.178-2.365h.127c.67 1.111 2.352 1.745 3.614 1.667.71-.043 1.8-.398 2.2-1.025 1.556-2.445-3.05-3.269-4.466-3.8-2.666-1.001-4.15-2.817-3.585-5.81.995-5.27 8.724-5.942 12.198-2.876zM36.7 40.6c-3.046.003-6.15.086-9.219.088-6.572-3.608-6.295-14.157.699-17.145 3.78-1.615 8.518-.72 11.127 2.543 3.549 4.44 2.542 11.815-2.607 14.514m-5.323-15.5c-8.138.727-7.948 13.711-.025 14.358 9.97.813 9.847-15.234.025-14.358M8.262 40.6c-7.23-3.94-5.87-15.772 2.348-17.587 2.92-.645 6.83-.192 8.954 2.106L17.86 26.91a7.47 7.47 0 0 0-5.554-1.835c-6.218.495-8.249 8.89-3.698 12.761 2.505 2.132 5.99 1.978 8.872.745v-5.087h-3.913v-2.28h6.348v8.902l-.957.483c-3.534.005-7.168-.034-10.696 0h-.001zM13.35.428c.095.03.144.202.134.303-.186 4.095.234 8.388-.005 12.459-.15 2.572-.995 4.978-3.738 5.614-3.206.744-6.865-.293-7.47-3.941l3.595-.931c.382 1.86 2.828 2.161 3.444.228.036-.113.169-.638.169-.707V.56l.13-.132z"/>
  </g>
  <defs>
    <clipPath id="a">
      <path fill="#fff" d="M0 0h50v50H0z"/>
    </clipPath>
  </defs>
</svg>
