<svg xmlns="http://www.w3.org/2000/svg" xmlns:xlink="http://www.w3.org/1999/xlink" fill="none" viewBox="0 0 50 22">
  <g clip-path="url(#a)">
    <path fill="#fff" d="M49.962 2.028c-.635-.386-1.198-.875-1.883-1.186-5.08-2.313-13.182.189-11.808 6.937.834 4.098 5.656 3.751 8.325 5.508 1.669 1.097 1.109 2.942-.652 3.52-1.76.58-4.12-.04-5.187-1.628l-.141.002-2.977 3.257-.049.25c1.278 1.084 2.75 1.901 4.415 2.21 5.134.946 10.574-1.31 9.944-7.314-.5-4.774-5.79-4.039-8.436-5.981-1.453-1.067-.768-2.738.755-3.283 1.64-.587 3.435-.114 4.709 1.014l2.985-3.303zM12.556.565h-4.48v14.368c0 .374-.348 1.242-.585 1.559-1.02 1.36-3.262.605-3.463-1.027L0 16.499c.434 2.437 2.205 4.098 4.642 4.498 4.754.78 7.862-1.586 7.914-6.455zm7.89 0h-4.48c-.026.071.097.117.097.146v19.92c.071.027.117-.097.146-.097h4.237v-8.67h8.573v8.67h4.237c.029 0 .075.124.146.097V.565h-4.383v7.403h-8.573z"/>
    <path fill="#242021" d="M20.446.565v7.403h8.573V.565h4.383v20.067c-.071.026-.117-.098-.146-.098h-4.237v-8.67h-8.573v8.67H16.21c-.029 0-.075.124-.146.098V.711c0-.03-.123-.076-.097-.147h4.48zm29.516 1.463-2.985 3.303c-1.274-1.128-3.07-1.601-4.709-1.015-1.523.546-2.208 2.217-.755 3.284 2.646 1.941 7.937 1.206 8.436 5.98.63 6.006-4.81 8.262-9.944 7.314-1.667-.308-3.138-1.124-4.415-2.21l.049-.249 2.977-3.258.141-.002c1.065 1.588 3.38 2.223 5.187 1.63 1.806-.594 2.32-2.423.652-3.522-2.669-1.756-7.491-1.41-8.325-5.507-1.374-6.749 6.727-9.25 11.808-6.938.685.312 1.249.801 1.883 1.187zM12.556.565v13.977c-.052 4.869-3.16 7.233-7.915 6.455-2.436-.4-4.207-2.06-4.642-4.498l4.028-1.035c.201 1.632 2.442 2.388 3.462 1.027.238-.317.584-1.185.584-1.559V.565z"/>
  </g>
  <defs>
    <clipPath id="a">
      <path fill="#fff" d="M0 0h50v21.143H0z"/>
    </clipPath>
  </defs>
</svg>
