<svg xmlns="http://www.w3.org/2000/svg" xmlns:xlink="http://www.w3.org/1999/xlink" fill="none" viewBox="0 0 40 50">
  <g clip-path="url(#a)">
    <path fill="url(#b)" d="M.015 30.232c0-.458 1.208-.828 1.664-.828.457 0 1.665.372 1.665.828V46.66H9.3V35.99c0-5.614-2.851-10.155-8.458-10.155-.457 0-.825-1.212-.825-1.668s.37-1.67.825-1.67h27.387c6.493 0 11.773 6.966 11.773 13.492V49.17c0 .458-.37.83-.825.83H28.231a.83.83 0 0 1-.825-.83V30.231c0-.457 1.209-.827 1.663-.827s1.664.372 1.664.828V46.66h5.959V35.99c0-5.614-2.852-10.155-8.446-10.155H8.509c3.557 2.113 4.103 5.955 4.103 10.154V49.17c0 .458-.37.83-.825.83H.84a.827.827 0 0 1-.825-.83zM30.7 18.072c0 .457-1.194.827-1.65.827s-1.662-.372-1.662-.828V.828c0-.458.37-.828.824-.828h10.946c.457 0 .825.372.825.828v21.87c0 .459-1.208.828-1.664.828-.457 0-1.663-.371-1.663-.827V3.338h-5.958V18.07h.002zm-27.388 0c0 .457-1.193.827-1.648.827S0 18.527 0 18.071V.828C0 .372.37 0 .825 0H11.77c.454 0 .825.372.825.828v17.258c0 .458-1.208.828-1.665.828-.456 0-1.664-.372-1.664-.828V3.326H3.312v14.747z"/>
  </g>
  <defs>
    <linearGradient id="b" x1="20" x2="20" y1="-.005" y2="50.005" gradientUnits="userSpaceOnUse">
      <stop stop-color="#001F4D"/>
      <stop offset="1" stop-color="#0067FF"/>
    </linearGradient>
    <clipPath id="a">
      <path fill="#fff" d="M0 0h40v50H0z"/>
    </clipPath>
  </defs>
</svg>
