<svg fill="none" xmlns="http://www.w3.org/2000/svg" viewBox="0 0 125 63">
  <g clip-path="url(#7pCWDMg3Kwtwa)">
    <path d="M93.354 23.37C90.564 12.059 80.68 3.162 68.506 1.169 56.476-.923 43.823 4.231 37.2 13.902c-3.874 5.55-5.656 12.375-4.927 18.989.084.85.279 1.987.44 2.831a35.76 35.76 0 01-.554-2.819 27.581 27.581 0 01.161-8.596C35.118 8.355 51.761-2.511 68.634.502c12.204 2.009 22.45 11.401 24.72 22.869z" fill="#009DAD"/>
    <path d="M92.548 28.35c-.183-.144-.362-.2-.566-.271-.933-.328-3.094.314-4.666 1.443-1.653 1.173-4.484 3.43-5.289 4.054-.709.551-1.323 1.011-1.455 1.112-.004.003-.005.01-.009.014a.323.323 0 01-.112.064c-.004 0-.007.003-.011.003-.003 0-.004 0-.007.003l-.007.006c.026.038.06.073.082.11.24.375.277.78.173 1.126-.102.346-.325.642-.593.89a3.606 3.606 0 01-1.385.781c-1.028.285-6.716 1.112-9.067.964-1.259-.089-3.383.002-5.298.184-.358.035-2.27.274-2.27.274-.358.036-1.289.146-1.905.07-.372-.046-1.186-.18-1.186-.18s1.944-.26 3.65-.462c2.657-.315 5.618-.612 7.02-.52 2.135.153 7.97-.686 8.817-.937.347-.097.778-.205 1.101-.503.212-.197.386-.547.448-.757.058-.212.084-.863-.412-1.472-1.07-1.31-3.439-1.651-6.294-1.712-2.122-.053-5.383.22-6.695.189-.96-.023-2.797-.096-3.958-.32-.391-.08-.699-.155-.953-.328-.315-.23-3.325-2.482-5.785-3.896-2.452-1.411-5.82-2.704-8.776-2.743-6.123-.073-7.902.852-12.845 5.162-.732.642-1.454 1.303-2.08 1.979 0 2.898 1.877 7.662 5.276 12.017 1.123-.277 7.888-5.05 12.476-3.533 6.93 2.292 12.513 4.374 16.713 4.457 1.8-.329 3.15-1.283 4.676-1.763a218.497 218.497 0 004.811-1.576c1.05-.357 2.488-.968 3.75-1.454a11.539 11.539 0 002.745-1.553c.029-.022.064-.053.105-.091.762-.696 2.601-3.373 4.317-4.962a561.85 561.85 0 015.522-4.989c.002-.005.026-.029.052-.06.279-.351-.035-.76-.108-.816l-.002-.004zm-28.336-2.981c.091.073.18.101.282.137.466.165 1.548-.152 2.338-.714.828-.583 2.25-1.708 2.654-2.019.356-.275.663-.503.73-.553l.005-.008a.225.225 0 01.068-.037c-.014-.019-.03-.037-.04-.056a.67.67 0 01-.084-.563c.052-.173.164-.32.298-.445.205-.186.462-.323.694-.388.515-.141 3.363-.544 4.539-.467.629.047 1.693.005 2.651-.082.178-.017 1.137-.133 1.137-.133.179-.017.644-.07.953-.03.187.023.593.091.593.091s-.974.127-1.829.225c-1.33.153-2.811.296-3.513.247-1.068-.08-3.989.33-4.414.455-.174.047-.39.101-.551.25a.941.941 0 00-.225.377c-.03.107-.045.432.203.738.533.656 1.718.832 3.146.868 1.062.03 2.694-.1 3.35-.082.48.013 1.4.052 1.98.167.195.04.349.079.476.166.157.115 1.659 1.248 2.887 1.96 1.224.71 2.907 1.363 4.385 1.386 3.064.047 6.426-3.488 6.426-3.488l-.521-1.943c-.915-2.347-.892-2.573-1.536-3.926-.561.136-3.459 2.301-5.752 1.534-3.463-1.159-6.253-2.212-8.353-2.26-.901.162-1.577.636-2.343.874-.95.294-1.787.572-2.41.78-.526.178-1.247.48-1.88.722a5.825 5.825 0 00-1.376.772.526.526 0 00-.054.045c-.381.347-1.308 1.684-2.169 2.475-.186.172-.375.342-.563.513-.218.197-.438.396-.658.592l-.652.582c-.18.162-.364.32-.542.483-.114.105-.244.2-.344.318-.082.096-.129.226-.066.34.019.037.044.07.08.098v-.001z" fill="#009DAD"/>
    <path d="M3.053 54.303c-.247 0-.507.003-.778.007a33.545 33.545 0 00-1.597.074c-.252.017-.478.04-.678.067.047-.162.071-.304.071-.43A1.78 1.78 0 000 53.605c.628.018 1.242.034 1.84.047a83.525 83.525 0 003.682 0c.599-.013 1.213-.029 1.84-.047a1.73 1.73 0 00-.07.43c0 .116.024.254.07.416-.199-.027-.425-.05-.677-.067a34.734 34.734 0 00-1.598-.075c-.27-.004-.53-.005-.778-.005a91.553 91.553 0 00-.043 2.778v2.309c0 .59.012 1.171.036 1.744.024.573.05 1.136.079 1.69a8.612 8.612 0 00-.7-.026c-.246 0-.48.008-.699.026.028-.554.055-1.117.079-1.69s.036-1.154.036-1.744v-2.309c0-.93-.014-1.857-.044-2.779zm4.321 3.933c0-.76.131-1.439.393-2.034a4.248 4.248 0 011.098-1.51 4.814 4.814 0 011.691-.94 6.878 6.878 0 012.155-.321c.78 0 1.512.107 2.168.321.656.214 1.22.529 1.691.94.47.411.836.915 1.098 1.51.262.595.393 1.273.393 2.034 0 .76-.13 1.438-.393 2.033a4.249 4.249 0 01-1.098 1.51 4.562 4.562 0 01-1.69.92c-.657.2-1.38.302-2.17.302-.789 0-1.498-.1-2.154-.302a4.561 4.561 0 01-1.69-.92 4.232 4.232 0 01-1.099-1.51c-.262-.595-.393-1.272-.393-2.033zm9.29 0c0-.743-.1-1.385-.3-1.926-.2-.542-.478-.99-.835-1.343a3.358 3.358 0 00-1.256-.785 4.659 4.659 0 00-1.562-.255c-.561 0-1.068.085-1.549.255-.48.17-.898.431-1.256.785-.357.354-.635.801-.835 1.343-.2.541-.3 1.183-.3 1.926 0 .742.1 1.384.3 1.926.2.541.478.989.835 1.342.358.354.776.616 1.256.786.48.17.997.255 1.549.255.551 0 1.081-.085 1.562-.255a3.35 3.35 0 001.256-.786c.357-.353.636-.8.835-1.342.2-.542.3-1.184.3-1.926zm10.407-.268c0-1.271-.005-2.25-.014-2.939-.01-.688-.033-1.163-.07-1.423.103.018.204.034.3.047a1.625 1.625 0 00.713-.047 53.935 53.935 0 00-.156 2.515l-.057 1.531a96.94 96.94 0 00-.043 1.523c-.01.6-.107 1.137-.293 1.61-.185.476-.45.877-.792 1.208a3.328 3.328 0 01-1.262.752c-.498.17-1.073.255-1.72.255-1.427 0-2.463-.304-3.11-.912-.647-.609-.97-1.57-.97-2.885 0-.42.011-.794.035-1.12.024-.327.036-.66.036-1a65.851 65.851 0 00-.085-3.477c.114.018.237.034.37.047.134.013.258.02.372.02.104 0 .207-.007.306-.02.1-.013.203-.029.307-.047-.02.198-.038.455-.057.772-.02.318-.039.678-.058 1.08a51.17 51.17 0 00-.043 1.302c-.01.465-.014.949-.014 1.45 0 .304.005.619.014.945.01.326.043.645.1.953.058.308.15.604.279.886.128.282.311.528.55.737.237.21.537.376.898.498.36.12.808.182 1.341.182.533 0 .963-.072 1.32-.216a2.53 2.53 0 00.877-.563c.228-.233.406-.5.535-.804.128-.304.22-.622.278-.953.057-.331.09-.663.1-.994.01-.33.015-.635.015-.912l-.002-.001zm10.067 4.543c-.186.085-.41.161-.671.228-.262.067-.555.128-.877.182-.325.054-.662.08-1.014.08a6.86 6.86 0 01-2.083-.302 4.445 4.445 0 01-1.648-.92 4.324 4.324 0 01-1.084-1.51c-.262-.595-.393-1.272-.393-2.033 0-.762.131-1.439.393-2.034a4.25 4.25 0 011.098-1.51 4.815 4.815 0 011.691-.94 6.928 6.928 0 012.169-.321c.628 0 1.201.06 1.72.181.518.121.977.267 1.376.437a1.685 1.685 0 00-.185.51l-.115.537-.085.027a3.104 3.104 0 00-.399-.363 4.422 4.422 0 00-.599-.388 3.979 3.979 0 00-.77-.316 3.287 3.287 0 00-.942-.128c-.562 0-1.082.085-1.562.255-.48.17-.899.431-1.256.785a3.61 3.61 0 00-.835 1.343c-.2.541-.3 1.183-.3 1.926 0 .742.1 1.384.3 1.926.2.542.478.989.835 1.343.357.353.775.615 1.256.785.48.17 1.001.255 1.562.255.342 0 .659-.041.95-.121a5.083 5.083 0 001.455-.65c.195-.13.359-.244.492-.342l.057.053-.128.792a1.91 1.91 0 01-.407.235l-.001-.002zm9.136-7.167c-.024-.568-.05-1.148-.079-1.739.123.018.243.034.357.047a2.987 2.987 0 00.684 0c.115-.013.233-.029.357-.047-.029.59-.054 1.17-.078 1.739a40.868 40.868 0 00-.036 1.738v2.309c0 .59.011 1.171.036 1.744.024.573.05 1.136.078 1.69a8.614 8.614 0 00-.699-.026c-.246 0-.48.008-.699.026.028-.554.055-1.117.079-1.69s.035-1.154.035-1.744v-1.208c-.513-.008-1.01-.016-1.49-.02a149.405 149.405 0 00-2.983 0c-.48.005-.977.01-1.49.02v1.208c0 .59.01 1.171.035 1.744.024.573.05 1.136.078 1.69a8.614 8.614 0 00-.699-.026c-.246 0-.48.008-.699.026.028-.554.055-1.117.079-1.69s.036-1.154.036-1.744v-2.309c0-.59-.012-1.17-.036-1.738-.024-.568-.05-1.148-.079-1.739.123.018.243.034.357.047a2.987 2.987 0 00.684 0c.115-.013.233-.029.358-.047-.029.59-.055 1.17-.08 1.739a41.036 41.036 0 00-.035 1.738v.47l1.491.026a85.243 85.243 0 002.982 0l1.492-.026v-.47c0-.59-.012-1.17-.036-1.738zm3.516 0c-.024-.568-.05-1.148-.079-1.739.123.018.243.034.357.047a2.987 2.987 0 00.684 0c.115-.013.233-.029.357-.047a330.6 330.6 0 00-.078 1.739 40.868 40.868 0 00-.036 1.738v2.309c0 .59.012 1.171.036 1.744.024.573.05 1.136.078 1.69a8.61 8.61 0 00-.699-.026c-.246 0-.48.008-.699.026.028-.554.055-1.117.079-1.69a41.31 41.31 0 00.036-1.744v-2.309c0-.59-.012-1.17-.036-1.738zm8.007 3.999a981.377 981.377 0 00-3.71-3.724 68.47 68.47 0 00-.044 2.724c0 .188.003.421.008.698l.014.873c.005.305.012.614.022.927.008.313.019.604.028.873.008.269.019.503.028.704.008.2.019.337.029.409a4.309 4.309 0 00-.5-.027c-.19 0-.366.009-.527.027.019-.09.04-.255.064-.496a22.8 22.8 0 00.065-.866l.065-1.094c.024-.393.043-.787.057-1.181.014-.394.027-.779.036-1.154.009-.375.014-.711.014-1.007 0-.858-.003-1.597-.008-2.214a28.056 28.056 0 00-.035-1.382h.229c.58.59 1.2 1.223 1.862 1.899.66.675 1.317 1.342 1.969 2 .652.657 1.27 1.28 1.855 1.865a68.907 68.907 0 001.534 1.497v-1.826c0-.94-.008-1.854-.022-2.745a57.523 57.523 0 00-.093-2.517c.191.046.353.067.486.067.114 0 .266-.022.456-.067-.019.198-.04.493-.064.886a140.658 140.658 0 00-.136 2.576c-.02.43-.028.774-.028 1.034v.804c0 .305.002.622.007.953l.014 1 .014.94c.005.29.008.543.008.757V63h-.2a136.58 136.58 0 00-3.495-3.657h-.002zm13.641-4.583a3.896 3.896 0 00-.713-.423 4.677 4.677 0 00-.87-.295 4.423 4.423 0 00-1.021-.114c-.59 0-1.14.085-1.648.255-.51.17-.95.431-1.327.785a3.646 3.646 0 00-.885 1.343c-.213.541-.321 1.183-.321 1.926 0 .653.095 1.243.284 1.772.19.528.47.973.836 1.335s.813.642 1.34.84c.528.197 1.126.295 1.792.295.2 0 .41-.009.628-.028a7.01 7.01 0 00.635-.08c.205-.036.394-.08.571-.134a2.19 2.19 0 00.45-.188 43.079 43.079 0 00.03-1.623 21.2 21.2 0 00-.022-.94c-.014-.313-.03-.613-.05-.899a3.651 3.651 0 001 .054c.104-.008.204-.026.3-.054-.02.206-.034.53-.044.973-.01.444-.014 1.027-.014 1.752 0 .18.003.36.008.544.005.183.006.364.006.544a9.281 9.281 0 01-1.705.409c-.338.049-.674.094-1.013.134-.338.04-.644.06-.92.06-.847 0-1.61-.096-2.29-.288-.68-.192-1.26-.49-1.734-.891a4.005 4.005 0 01-1.099-1.503c-.257-.6-.385-1.293-.385-2.08 0-.788.134-1.439.4-2.034a4.188 4.188 0 011.127-1.51c.485-.411 1.073-.725 1.762-.94.69-.215 1.453-.322 2.29-.322.486 0 .915.026 1.292.075a7.161 7.161 0 011.763.45c.219.089.413.174.585.254a2.258 2.258 0 00-.207.483c-.063.197-.102.38-.121.55h-.172a3.63 3.63 0 00-.535-.483l-.003-.004zm14.526.584c-.024-.568-.05-1.148-.079-1.739.124.018.243.034.358.047a2.987 2.987 0 00.684 0c.114-.013.232-.029.357-.047-.028.59-.055 1.17-.079 1.739a40.868 40.868 0 00-.036 1.738v2.309c0 .59.012 1.171.036 1.744.024.573.05 1.136.079 1.69a8.614 8.614 0 00-.7-.026c-.246 0-.48.008-.699.026.028-.554.055-1.117.08-1.69.023-.573.035-1.154.035-1.744v-1.208c-.514-.008-1.01-.016-1.491-.02a149.405 149.405 0 00-2.982 0c-.481.005-.978.01-1.492.02v1.208c0 .59.012 1.171.036 1.744.024.573.05 1.136.079 1.69a8.614 8.614 0 00-.7-.026c-.246 0-.48.008-.699.026.028-.554.055-1.117.08-1.69a41.48 41.48 0 00.035-1.744v-2.309c0-.59-.011-1.17-.036-1.738-.024-.568-.05-1.148-.079-1.739.124.018.243.034.358.047a2.99 2.99 0 00.684 0c.114-.013.232-.029.357-.047-.028.59-.055 1.17-.079 1.739a41.034 41.034 0 00-.036 1.738v.47l1.492.026a85.243 85.243 0 002.982 0l1.49-.026v-.47c0-.59-.01-1.17-.035-1.738zm11.492 7.481a2.841 2.841 0 00-.378-.026h-.756c-.12 0-.245.008-.378.026a13.698 13.698 0 00-.27-.744c-.115-.29-.24-.596-.38-.913l-.42-.966a64.432 64.432 0 01-.4-.932 75.68 75.68 0 00-1.869-.028 51.878 51.878 0 00-1.742.028c-.305.698-.58 1.363-.827 1.993-.248.63-.434 1.152-.557 1.564a4.821 4.821 0 00-.527-.027c-.19 0-.367.009-.528.027.77-1.565 1.522-3.123 2.255-4.67.732-1.548 1.47-3.123 2.212-4.724h.27c.23.519.476 1.08.743 1.685a337.827 337.827 0 001.641 3.67 218.197 218.197 0 001.435 3.1c.195.411.355.725.478.94l-.002-.003zm-6.322-4.173c.248 0 .505.005.77.013.266.008.523.013.77.013a53.339 53.339 0 001.6-.026l-1.584-3.409-1.556 3.409zm12.12.691a996.455 996.455 0 00-3.71-3.724c-.011.25-.02.585-.029 1.006a76.268 76.268 0 00-.006 2.416l.014.873c.005.305.011.614.021.927l.028.873.028.704c.01.2.02.337.028.409a4.309 4.309 0 00-.5-.027c-.19 0-.365.009-.527.027.02-.09.04-.255.065-.496.024-.242.046-.53.065-.866.019-.336.04-.7.065-1.094.024-.393.043-.787.057-1.181.014-.394.025-.779.035-1.154.01-.375.014-.711.014-1.007 0-.858-.002-1.597-.007-2.214a28.056 28.056 0 00-.036-1.382h.229c.58.59 1.201 1.223 1.862 1.899.661.675 1.317 1.342 1.969 2 .653.657 1.27 1.28 1.855 1.865a70.98 70.98 0 001.534 1.497v-1.826c0-.94-.007-1.854-.021-2.745a57.51 57.51 0 00-.093-2.517c.191.046.352.067.486.067.114 0 .265-.022.456-.067a27.58 27.58 0 00-.065.886c-.024.394-.048.815-.071 1.262-.024.447-.046.886-.065 1.315-.019.429-.028.773-.028 1.033v.804c0 .305.003.622.008.953l.014 1 .014.94c.005.29.006.543.006.757V63h-.199a140.5 140.5 0 00-3.496-3.657zm6.065-2.261c0-.59-.012-1.17-.036-1.738-.024-.568-.05-1.148-.079-1.739.361.018.721.034 1.078.047.357.013.716.02 1.077.02a17 17 0 001.078-.033c.357-.023.715-.034 1.077-.034.837 0 1.553.103 2.148.309.593.205 1.082.498 1.462.878.38.38.658.846.835 1.396.175.55.264 1.17.264 1.859 0 .894-.164 1.649-.492 2.26a4.38 4.38 0 01-1.256 1.484 4.808 4.808 0 01-1.684.799 7.125 7.125 0 01-1.762.234c-.324 0-.642-.005-.956-.013a31.34 31.34 0 00-.956-.013h-.956c-.314 0-.633.008-.956.026.028-.554.055-1.118.079-1.69.024-.573.036-1.154.036-1.745v-2.308l-.001.001zm1.169 2.309c0 .966.028 1.915.085 2.845.2.046.471.079.814.1.342.023.694.034 1.056.034.523 0 1.046-.057 1.57-.175a3.499 3.499 0 001.406-.657c.413-.322.751-.763 1.013-1.322.262-.56.393-1.282.393-2.168 0-.778-.102-1.418-.306-1.919-.205-.5-.486-.897-.842-1.187a3.068 3.068 0 00-1.277-.604 7.359 7.359 0 00-1.628-.167c-.428 0-.827.013-1.198.04a21.3 21.3 0 00-.999.095 40.644 40.644 0 00-.087 2.778v2.309-.002zm9.411 2.18c.128.166.284.316.47.45a2.477 2.477 0 001.477.456c.305 0 .598-.05.849-.154a1.94 1.94 0 00.642-.416 1.8 1.8 0 00.407-.617c.095-.236.142-.49.142-.758 0-.41-.111-.737-.335-.98a2.77 2.77 0 00-.835-.604 10.001 10.001 0 00-1.077-.442 5.725 5.725 0 01-1.078-.503 2.78 2.78 0 01-.835-.772c-.224-.313-.336-.734-.336-1.26 0-.376.071-.72.214-1.028.142-.308.349-.575.62-.798a2.96 2.96 0 01.978-.524c.38-.126.808-.188 1.284-.188.475 0 .851.051 1.184.154.333.103.642.262.928.476a2.83 2.83 0 00-.213.483 6.36 6.36 0 00-.172.645h-.171a3.315 3.315 0 00-.194-.41 1.593 1.593 0 00-.328-.408 1.67 1.67 0 00-1.177-.444c-.267 0-.511.04-.735.121-.223.08-.418.195-.584.342a1.495 1.495 0 00-.385.53 1.635 1.635 0 00-.136.67c0 .421.111.752.335.994.224.241.502.445.835.61.333.167.693.314 1.078.443.385.13.744.288 1.077.476.333.188.611.43.835.724.224.296.336.69.336 1.182 0 .41-.079.8-.235 1.168a2.753 2.753 0 01-.686.96 3.11 3.11 0 01-1.098.631 4.579 4.579 0 01-1.477.221c-.59 0-1.068-.074-1.434-.221a3.973 3.973 0 01-.92-.503c.085-.206.145-.391.178-.557a7.03 7.03 0 00.092-.638h.172c.076.162.178.324.306.49h.002z" fill="#231F20"/>
  </g>
  <defs>
    <clipPath id="7pCWDMg3Kwtwa">
      <path fill="#fff" d="M0 0h125v63H0z"/>
    </clipPath>
  </defs>
</svg>
